<?xml version="1.0" encoding="UTF-8"?> <svg xmlns="http://www.w3.org/2000/svg" xmlns:xlink="http://www.w3.org/1999/xlink" width="101px" height="27px" viewBox="0 0 101 27" version="1.1"><!-- Generator: Sketch 49.3 (51167) - http://www.bohemiancoding.com/sketch --><title>logos / cemex / color</title><desc>Created with Sketch.</desc><defs></defs><g id="logos-/-cemex-/-color" stroke="none" stroke-width="1" fill="none" fill-rule="evenodd"><path d="M94.1387143,22.9688274 L90.4830975,25.2689735 L90.4830975,26.943363 L87.6441121,26.943363 L87.6441121,24.5831042 C87.6687699,24.1255797 87.9149295,23.6872578 88.3290962,23.4342835 L91.7569422,21.31865 L88.3290962,19.2034339 C87.9149295,18.9508771 87.6687699,18.5113028 87.6441121,18.0541958 L87.6441121,15.6943544 L90.4830975,15.6943544 L90.4830975,17.3699962 L94.1596107,19.6684726 L97.8143916,17.3699962 L97.8143916,15.6943544 L100.652959,15.6943544 L100.652959,18.0541958 C100.629137,18.5113028 100.381724,18.9508771 99.9679749,19.2034339 L96.614938,21.306544 L99.9679749,23.4342835 C100.381724,23.6872578 100.629137,24.1255797 100.652959,24.5831042 L100.652959,26.943363 L97.8143916,26.943363 L97.8143916,25.2689735 L94.1387143,22.9688274 Z" id="Fill-11" fill="#023185"></path><polygon id="Fill-9" fill="#023185" points="80.0445082 22.4918915 86.3740288 22.4918915 86.3740288 20.1454085 80.0445082 20.1454085"></polygon><path d="M75.0001583,23.9602697 L75.0001583,18.5300881 C75.0001583,16.963818 76.2719134,15.6943544 77.8408154,15.6943544 L86.3740706,15.6943544 L86.3740706,18.4324049 L78.2817295,18.4324049 C77.9833288,18.4324049 77.7421843,18.6728558 77.7421843,18.9713321 L77.7421843,23.6421733 C77.7421843,23.9389798 77.9833288,24.2040602 78.2817295,24.2040602 L86.3740706,24.2040602 L86.3740706,26.943363 L77.8897129,26.943363 C76.320811,26.943363 75.0118603,25.6976941 75.0118603,24.1305891 L75.0001583,23.9602697 Z" id="Fill-8" fill="#023185"></path><path d="M62.5643326,18.4323214 L62.5643326,26.943697 L59.8218887,26.943697 L59.8218887,15.6942709 L67.7303414,15.6942709 L70.887788,15.6942709 C72.455854,15.6942709 73.7280271,16.9637345 73.7280271,18.5300046 L73.7280271,26.943697 L70.9375214,26.943697 L70.9375214,18.9712486 C70.9375214,18.6727723 70.6963769,18.4323214 70.3988121,18.4323214 L68.1461799,18.4323214 L68.1461799,26.943697 L65.3552562,26.943697 L65.3552562,18.4323214 L62.5643326,18.4323214 Z" id="Fill-10" fill="#023185"></path><polygon id="Fill-5" fill="#023185" points="52.2247088 22.4918915 58.5546472 22.4918915 58.5546472 20.1454085 52.2247088 20.1454085"></polygon><path d="M47.1805678,23.9602697 L47.1805678,18.5300881 C47.1805678,16.963818 48.4527408,15.6943544 50.0216428,15.6943544 L58.554898,15.6943544 L58.554898,18.4324049 L50.4621389,18.4324049 C50.1649921,18.4324049 49.9230117,18.6728558 49.9230117,18.9713321 L49.9230117,23.6421733 C49.9230117,23.9389798 50.1649921,24.2040602 50.4621389,24.2040602 L58.554898,24.2040602 L58.554898,26.943363 L50.0705403,26.943363 C48.5016384,26.943363 47.1939415,25.6976941 47.1939415,24.1305891 L47.1805678,23.9602697 Z" id="Fill-3" fill="#023185"></path><path d="M34.9704651,18.5301716 C34.9704651,16.9639015 36.2422202,15.6944379 37.8102863,15.6944379 L46.2315367,15.6944379 L46.2315367,18.4324884 L38.2516183,18.4324884 C37.9536356,18.4324884 37.712909,18.6729392 37.712909,18.9714156 L37.712909,23.6422568 C37.712909,23.9390633 37.9536356,24.2041436 38.2516183,24.2041436 L46.2315367,24.2041436 L46.2315367,26.9434465 L37.8591838,26.9434465 C36.2911177,26.9434465 34.9713009,25.5274582 34.9713009,23.9595183 L34.9704651,18.5301716 Z" id="Fill-7" fill="#023185"></path><polygon id="Fill-1" fill="#E3303D" points="22.5236245 0 0 27.0071179 10.0759734 27.0071179 32.59918 0"></polygon><polygon id="Fill-2" fill="#023185" points="36.1860793 0 13.6624244 27.0071179 23.7379494 27.0071179 46.2616044 0"></polygon></g></svg> 